PathFileType	4	(X/Y/Z)	s08c0201.trc
DataRate	CameraRate	NumFrames	NumMarkers	Units	OrigDataRate	OrigDataStartFrame	OrigNumFrames
200	200	4	50	mm	200	1000	2000
Frame#	Time	racr			lacr			c7			jug			rlel			rdr			llel			ldr			s2			lic			ric			lasi			rasi			rpsi			lpsi			rgt			lgt			rth1			rth2			rth3			rth4			rlfc			rmfc			rsh1			rsh2			rsh3			rsh4			rlmal			rmmal			rcal			rtoe			rmt5			lth1			lth2			lth4			lth3			llfc			lmfc			llmal			lmmal			lcal			lmt5			lsh1			lsh2			lsh3			lsh4			ltoe			SBIKE			LBIKE			RBIKE			
		X1	Y1	Z1	X2	Y2	Z2	X3	Y3	Z3	X4	Y4	Z4	X5	Y5	Z5	X6	Y6	Z6	X7	Y7	Z7	X8	Y8	Z8	X9	Y9	Z9	X10	Y10	Z10	X11	Y11	Z11	X12	Y12	Z12	X13	Y13	Z13	X14	Y14	Z14	X15	Y15	Z15	X16	Y16	Z16	X17	Y17	Z17	X18	Y18	Z18	X19	Y19	Z19	X20	Y20	Z20	X21	Y21	Z21	X22	Y22	Z22	X23	Y23	Z23	X24	Y24	Z24	X25	Y25	Z25	X26	Y26	Z26	X27	Y27	Z27	X28	Y28	Z28	X29	Y29	Z29	X30	Y30	Z30	X31	Y31	Z31	X32	Y32	Z32	X33	Y33	Z33	X34	Y34	Z34	X35	Y35	Z35	X36	Y36	Z36	X37	Y37	Z37	X38	Y38	Z38	X39	Y39	Z39	X40	Y40	Z40	X41	Y41	Z41	X42	Y42	Z42	X43	Y43	Z43	X44	Y44	Z44	X45	Y45	Z45	X46	Y46	Z46	X47	Y47	Z47	X48	Y48	Z48	X49	Y49	Z49	X50	Y50	Z50	
1000	5.0000	563.074024	1344.689802	-86.366750	537.822093	1291.443388	-448.395152	542.053481	1412.384817	-278.246402	491.901152	1257.597760	-256.699670	552.682440	1107.015631	47.890685	767.404260	935.785548	-55.714193	531.774456	1027.738916	-547.294788	760.893760	923.851604	-419.421317	-5.482010	1200.453968	-218.084332	141.517005	1200.353844	-368.611811	160.193546	1215.904522	-52.197900	177.094558	1164.649237	-327.263873	186.445706	1151.853349	-84.693482	28.319156	1238.075707	-165.093501	24.273369	1244.952948	-260.578599	80.216501	1082.773227	-35.201502	120.963622	1103.542453	-405.305280	167.977352	929.191531	-26.185124	225.841609	861.809974	-30.877670	241.575892	777.291535	-44.971860	258.670112	878.339211	-37.278424	297.703479	672.530341	-62.541626	274.661426	656.540573	-167.151309	266.948872	543.591863	-28.017853	293.537398	459.563216	-45.633893	274.115437	375.185568	-52.039953	320.827649	464.921717	-75.519091	273.650606	252.420930	-60.096710	284.442868	276.939547	-148.904228	201.409600	214.149685	-105.834215	497.932497	237.839403	-107.948957	414.902771	194.702314	-41.444394	227.396302	1025.616997	-398.594128	310.359752	1000.846258	-387.624119	327.391806	1029.257680	-370.273466	371.934655	936.141119	-384.912466	445.021409	837.550226	-359.822136	431.761407	811.319645	-244.500960	125.139327	576.237134	-391.167208	156.921749	568.973479	-307.587762	56.068210	591.002170	-353.208000	190.783309	426.678764	-420.482172	355.474309	755.808707	-388.236488	301.901001	689.085168	-378.818227	222.072453	653.074968	-385.516532	318.334828	670.170454	-349.104681	274.527586	402.006712	-352.469483	-139.126065	942.141087	-225.696894	17.128107	80.718264	-427.968748	17.119397	79.773689	-29.349408	
1001	5.0050	564.472580	1346.922572	-89.615471	537.167976	1291.339014	-451.677422	542.332003	1413.080530	-281.618192	492.427429	1258.323443	-259.273964	554.035635	1109.993646	45.689943	767.368247	935.768138	-56.006528	531.787925	1026.396687	-546.940262	761.640907	923.886922	-419.266273	-4.155237	1200.679502	-214.528106	140.116943	1202.616601	-366.720674	163.619308	1215.538857	-50.830833	176.669885	1166.960019	-326.170855	188.176904	1150.811449	-83.567470	30.765545	1238.727806	-162.661248	24.140456	1246.474377	-256.021736	81.186445	1083.076440	-33.701169	120.100250	1107.986623	-403.924502	164.246680	927.527791	-24.693795	220.225672	858.498276	-29.137018	233.601012	773.497084	-42.855397	253.987104	874.097647	-35.124153	287.117499	667.627559	-60.913343	263.464162	651.617387	-165.815684	256.353216	538.125135	-26.928904	284.107920	454.755082	-43.669804	265.463962	370.164406	-50.830860	311.443841	460.293913	-73.994138	266.548705	247.291701	-59.323027	277.848807	271.672117	-148.008482	194.432159	210.356340	-105.176209	491.364694	228.649732	-107.994452	407.680247	187.002017	-41.363838	227.425640	1030.692905	-397.932589	311.005852	1007.612767	-387.167436	327.242166	1036.026558	-369.253428	373.861401	944.276281	-385.293636	449.309268	846.899729	-359.285296	437.155542	817.457901	-248.352031	130.531008	583.459164	-390.691553	162.903005	576.978180	-307.308388	60.904926	597.128453	-352.998399	198.426107	435.247027	-420.482627	358.418363	761.542784	-382.294652	306.546888	697.526404	-378.939240	226.878869	661.026977	-385.291249	323.773481	678.774567	-350.857456	282.250219	411.466100	-352.020772	-139.069346	942.227203	-225.389011	17.168996	80.958027	-427.869657	17.122881	79.798866	-29.312322	
1002	5.0100	565.604590	1348.956370	-94.679463	536.382921	1291.110963	-454.088727	542.577332	1413.808781	-285.006726	492.739032	1259.215238	-261.396911	555.486772	1112.938392	43.843660	767.258791	935.727577	-56.376335	531.969333	1025.105564	-546.543139	762.276353	923.877647	-418.992537	-2.111846	1201.057007	-211.984928	138.616570	1204.720967	-364.835662	166.857307	1215.096546	-49.776557	176.223536	1169.227685	-325.103420	189.796650	1149.584407	-82.507590	34.210574	1238.901347	-158.871334	24.488994	1247.694728	-251.854008	81.776838	1083.404096	-32.419150	119.334039	1112.352034	-402.627539	160.322777	926.123603	-23.211183	214.418813	855.459570	-27.223526	225.528148	770.099645	-40.496574	248.563650	869.906329	-33.917020	276.381353	663.037464	-59.424412	252.773071	646.875330	-164.517258	245.774380	533.574631	-25.441996	274.474456	450.337981	-42.190545	256.633508	365.689247	-49.687394	301.952199	456.275694	-72.367794	259.178149	242.735671	-58.559294	270.567485	267.343512	-147.108662	187.088893	207.120351	-104.495111	484.358118	219.931823	-107.946302	400.057421	179.848128	-41.195515	227.509400	1036.002851	-397.384709	311.608072	1014.514285	-386.978432	327.260051	1043.051001	-368.657141	375.724824	952.545556	-385.766077	452.916471	855.927081	-359.174017	442.735186	823.050739	-253.646924	136.334721	589.983989	-390.495262	168.777235	583.484560	-306.833876	66.633587	602.681309	-352.678436	206.607858	442.958868	-420.364499	362.800120	770.386875	-382.838217	311.164320	705.831984	-379.372002	231.957075	668.752280	-385.370634	329.116667	686.706658	-351.687411	290.649579	420.636233	-351.997758	-138.879531	942.366825	-225.228605	17.164604	81.108375	-427.821413	17.135640	79.824090	-29.288206	
1003	5.0150	567.089673	1350.872792	-98.632479	535.598622	1290.986716	-456.379428	542.763024	1414.422082	-288.356582	493.314135	1259.890322	-263.534959	556.960071	1115.841364	42.216018	767.101153	935.618862	-56.901161	532.239641	1024.043245	-546.141823	762.728553	923.886855	-418.615062	-1.124123	1201.951487	-209.499285	137.408252	1206.672568	-363.246879	169.955974	1214.683476	-49.181483	175.814683	1171.250502	-324.022035	191.285366	1148.460005	-81.472961	35.175769	1240.139844	-155.801604	24.287132	1249.056097	-247.637249	82.109054	1083.731375	-31.242935	118.666092	1116.668546	-401.430386	156.437913	924.876909	-21.586760	208.618378	852.675903	-25.068172	217.517591	767.065248	-37.997675	242.585897	866.476536	-32.449089	265.569751	659.094448	-57.814702	242.326422	642.772372	-163.125758	235.506513	529.617233	-23.707935	264.339155	446.483526	-41.139549	247.625882	361.745476	-48.591994	292.663551	452.804488	-70.486709	251.399973	238.714926	-57.845797	263.197880	263.456948	-146.331661	179.596203	204.517757	-103.896624	476.948520	211.811811	-107.811085	391.938352	173.244806	-41.038822	227.690242	1041.550650	-396.947468	312.053582	1021.580834	-386.772836	327.251394	1050.314063	-368.529050	377.183618	960.683348	-386.519230	456.535121	864.604907	-360.201054	447.476532	831.442830	-254.438250	142.640663	595.812643	-390.503033	174.180738	589.601185	-307.318188	72.510798	607.423196	-352.811813	214.994058	450.020867	-420.348304	368.377154	781.778076	-388.800100	316.313144	713.743523	-379.961792	237.384421	675.973332	-385.721399	334.636409	694.027567	-352.177520	299.537453	429.381438	-351.759550	-138.813059	942.482714	-224.968313	17.160433	81.274931	-427.746543	17.141439	79.840496	-29.254501	
